# File created by Blade
# Date/Time:  Tue Jan 27 19:58:31 2015
# Frame Rate: 120.000 fps
#------------------------------------------------------
:FULLY-SPECIFIED
:DEGREES
3146
root 6.647820 34.260256 2.141761 27.302053 -38.534144 -45.600938
Spine 14.262013 33.556445 11.971857
Head -17.251944 6.891494 12.065428
LeftShoulder -16.202117 -1.810941 33.871715
LeftArm -6.848800 -22.056899 -76.833343
LeftForeArm -45.554496 -0.000000 140.601203
LeftHand 6.582772 -0.000000 -40.307576
LeftHandThumb1 -26.253704 0.000000 33.147579
RightShoulder -4.649756 5.360855 -19.664181
RightArm 38.241196 -53.854774 77.071947
RightForeArm -23.244170 -0.000000 14.077213
RightHand 16.222853 -0.000000 10.945055
RightHandThumb1 -24.326973 -0.000000 -32.862282
LeftUpLeg 8.604485 18.754062 25.330540
LeftLeg -1.391337 -0.000000 0.000000
LeftFoot -25.609588 33.670672 -19.024373
LeftToeBase 16.838075 -0.000000 -0.000000
RightUpLeg -69.337255 -63.831161 14.327640
RightLeg 114.271756 -0.000000 -0.000000
RightFoot 34.416234 -19.175585 19.709045
RightToeBase 19.492341 -0.000000 -0.000000
3147
root 6.629547 34.233362 2.156915 26.891680 -39.012003 -45.534157
Spine 14.714027 33.625079 11.901689
Head -16.982018 7.077356 12.016463
LeftShoulder -16.180579 -1.892878 33.956491
LeftArm -6.817855 -22.124842 -76.680591
LeftForeArm -45.588126 0.000000 140.575150
LeftHand 6.481199 -0.000000 -40.143196
LeftHandThumb1 -26.253704 0.000000 33.147579
RightShoulder -4.550313 5.465770 -19.646582
RightArm 38.601557 -54.043915 76.826879
RightForeArm -23.323130 -0.000000 14.075646
RightHand 16.239842 -0.000000 10.965136
RightHandThumb1 -24.326973 -0.000000 -32.862282
LeftUpLeg 9.215987 18.708291 25.189720
LeftLeg -1.371840 -0.000000 0.000000
LeftFoot -25.821832 33.923700 -19.157907
LeftToeBase 16.950978 -0.000000 -0.000000
RightUpLeg -72.274747 -64.396895 17.174172
RightLeg 114.313473 -0.000000 -0.000000
RightFoot 34.012242 -19.853582 20.028820
RightToeBase 19.569180 -0.000000 -0.000000
3148
root 6.610157 34.211098 2.168594 26.566153 -39.402582 -45.507214
Spine 15.012131 33.628244 11.845128
Head -16.559976 7.287329 12.001815
LeftShoulder -16.164948 -1.845419 33.992493
LeftArm -6.608235 -22.168539 -76.576061
LeftForeArm -45.610929 0.000000 140.512576
LeftHand 6.414779 -0.000000 -40.165108
LeftHandThumb1 -26.253704 0.000000 33.147579
RightShoulder -4.419732 5.535948 -19.589789
RightArm 39.146510 -54.374060 76.334760
RightForeArm -23.144215 -0.000000 14.050098
RightHand 16.231907 0.000000 10.959877
RightHandThumb1 -24.326973 -0.000000 -32.862282
LeftUpLeg 9.744636 18.851353 25.137997
LeftLeg -1.385977 -0.000000 0.000000
LeftFoot -25.885215 34.079136 -19.139443
LeftToeBase 16.692096 -0.000000 -0.000000
RightUpLeg -75.189163 -64.881035 20.065268
RightLeg 114.288970 -0.000000 -0.000000
RightFoot 33.646684 -20.457975 20.720756
RightToeBase 19.388691 -0.000000 -0.000000
3149
root 6.591767 34.190487 2.180886 26.300877 -39.755520 -45.473647
Spine 15.182227 33.647475 11.770430
Head -16.054211 7.427485 12.020709
LeftShoulder -16.143994 -2.028033 34.084239
LeftArm -6.623021 -22.094842 -76.382138
LeftForeArm -45.622654 -0.000000 140.390779
LeftHand 6.357526 -0.000000 -40.045600
LeftHandThumb1 -26.253704 0.000000 33.147579
RightShoulder -4.286862 5.509686 -19.536313
RightArm 39.596819 -54.580432 75.969697
RightForeArm -22.966198 0.000000 14.021777
RightHand 16.226071 -0.000000 10.835042
RightHandThumb1 -24.326973 -0.000000 -32.862282
LeftUpLeg 10.234938 19.032730 25.085325
LeftLeg -1.464267 -0.000000 0.000000
LeftFoot -25.891525 34.126069 -19.083092
LeftToeBase 16.701150 -0.000000 -0.000000
RightUpLeg -78.150905 -65.269234 22.985810
RightLeg 114.220036 -0.000000 -0.000000
RightFoot 33.482048 -20.701059 21.059772
RightToeBase 20.529647 -0.000000 -0.000000
3150
root 6.570882 34.175385 2.192942 26.094965 -40.055329 -45.488689
Spine 15.262373 33.706530 11.738322
Head -15.454147 7.553308 12.091057
LeftShoulder -16.026206 -2.159097 34.178966
LeftArm -6.615861 -22.019925 -76.228985
LeftForeArm -45.659345 -0.000000 140.254402
LeftHand 6.298350 -0.000000 -40.043668
LeftHandThumb1 -26.253704 0.000000 33.147579
RightShoulder -4.168071 5.563018 -19.468989
RightArm 39.680243 -54.741398 75.906860
RightForeArm -22.855048 -0.000000 14.027760
RightHand 16.212195 0.000000 10.664525
RightHandThumb1 -24.326973 -0.000000 -32.862282
LeftUpLeg 10.711244 19.303942 25.104703
LeftLeg -1.592036 -0.000000 0.000000
LeftFoot -25.830166 34.095498 -18.979338
LeftToeBase 16.603107 -0.000000 -0.000000
RightUpLeg -81.061152 -65.571421 25.918169
RightLeg 114.066709 -0.000000 -0.000000
RightFoot 33.445501 -20.957660 21.448235
RightToeBase 20.761508 -0.000000 -0.000000
3151
root 6.548690 34.165144 2.205561 25.915036 -40.288828 -45.541990
Spine 15.341921 33.708999 11.776482
Head -14.904468 7.674803 12.159966
LeftShoulder -15.914664 -2.287490 34.262677
LeftArm -6.678894 -21.957249 -76.086135
LeftForeArm -45.613525 -0.000000 140.128870
LeftHand 6.208429 -0.000000 -40.073541
LeftHandThumb1 -26.253704 0.000000 33.147579
RightShoulder -4.083525 5.533034 -19.421748
RightArm 39.901319 -54.924674 75.714875
RightForeArm -22.689332 0.000000 14.087451
RightHand 16.214120 -0.000000 10.543169
RightHandThumb1 -24.326973 -0.000000 -32.862282
LeftUpLeg 11.180302 19.497179 25.183628
LeftLeg -1.743129 -0.000000 0.000000
LeftFoot -25.735217 34.069244 -18.857376
LeftToeBase 16.522903 -0.000000 -0.000000
RightUpLeg -83.798150 -65.825442 28.736076
RightLeg 113.864474 -0.000000 -0.000000
RightFoot 33.394693 -21.198356 21.699960
RightToeBase 20.595441 -0.000000 -0.000000
3152
root 6.530545 34.157218 2.218385 25.748456 -40.440752 -45.576292
Spine 15.393833 33.610213 11.829336
Head -14.433554 7.854660 12.184795
LeftShoulder -15.872776 -2.327194 34.315027
LeftArm -6.690463 -21.835596 -76.021443
LeftForeArm -45.512592 -0.000000 140.001879
LeftHand 6.169184 -0.000000 -40.044687
LeftHandThumb1 -26.253704 0.000000 33.147579
RightShoulder -3.999725 5.579589 -19.388397
RightArm 39.939173 -55.090254 75.692962
RightForeArm -22.583344 -0.000000 14.139238
RightHand 16.205663 -0.000000 10.415632
RightHandThumb1 -24.326973 -0.000000 -32.862282
LeftUpLeg 11.550647 19.565097 25.247859
LeftLeg -1.857798 -0.000000 0.000000
LeftFoot -25.675595 34.103060 -18.748546
LeftToeBase 16.548032 -0.000000 -0.000000
RightUpLeg -86.440180 -66.046779 31.467259
RightLeg 113.604547 -0.000000 -0.000000
RightFoot 32.999477 -21.800049 22.417861
RightToeBase 20.160111 -0.000000 -0.000000
